<svg xmlns="http://www.w3.org/2000/svg" viewBox="0 0 1239 366" width="1239" height="366">
	<defs>
		<clipPath clipPathUnits="userSpaceOnUse" id="cp1">
			<path d="M0 0L1239 0L1239 366L0 366Z" />
		</clipPath>
	</defs>
	<style>
		tspan { white-space:pre }
		.shp0 { fill: #3b3e43 } 
	</style>
	<g id="Page 1" clip-path="url(#cp1)">
		<path id="Path 1" fill-rule="evenodd" class="shp0" d="M658.14 206.68L624.66 206.68L624.79 205.24L626.44 205.24C628.82 205.24 630.83 204.35 632.53 202.62C634.22 200.88 635.14 198.77 635.21 196.25L635.21 115.69C635.21 113.18 634.36 111.06 632.62 109.32C630.86 107.58 628.82 106.71 626.44 106.71L624.79 106.71L624.66 105.26L651.96 105.26C661.39 105.26 668.71 107.47 673.92 111.85C679.14 116.25 681.75 122.11 681.75 129.46C681.75 135.25 680.29 140.05 677.36 143.87C674.41 147.69 670.85 150.23 666.65 151.48C673.88 152.63 679.6 155.78 683.8 160.9C688.01 166.02 690.12 172.46 690.12 180.24C690.12 188.01 687.31 194.37 681.67 199.29C676.04 204.21 668.2 206.68 658.14 206.68ZM644.14 201.47L657.87 201.47C664.81 201.47 670.22 199.46 674.06 195.44C677.91 191.45 679.82 185.77 679.82 178.43C679.82 174.27 679.14 170.63 677.83 167.49C676.51 164.34 674.83 161.86 672.82 160.03C667.53 155.4 659.56 153.07 648.96 153.07L648.82 153.07L648.82 151.76L650.1 151.76C650.9 151.76 652.02 151.68 653.46 151.48C654.92 151.28 656.58 150.94 658.4 150.46C660.24 149.98 661.9 149.21 663.35 148.14C664.81 147.09 666.18 145.82 667.45 144.38C670.13 141.19 671.46 136.43 671.46 130.1C671.46 123.78 669.73 118.82 666.31 115.25C662.89 111.68 657.92 109.9 651.41 109.9L644.14 109.9L644.14 201.47ZM800.48 205.24L801.56 205.24L801.56 206.67L770.69 206.67L770.69 205.24L771.93 205.24C773.85 205.24 775.27 204.58 776.25 203.27C777.21 201.96 777.67 200.73 777.67 199.57C777.67 198.42 777.5 197.26 777.14 196.1L768.35 171.48L731.29 171.48L722.1 196.25C721.73 197.41 721.55 198.54 721.55 199.66C721.55 200.76 722.02 201.96 722.99 203.27C723.95 204.58 725.39 205.24 727.33 205.24L728.55 205.24L728.55 206.67L700.97 206.67L700.97 205.24L702.21 205.24C704.48 205.24 706.71 204.45 708.93 202.91C711.12 201.37 712.89 199.1 714.27 196.1L745.3 118.15C748.67 110.33 750.37 105.36 750.37 103.24L751.61 103.24L788.39 196.1C789.67 199.1 791.41 201.37 793.61 202.91C795.81 204.45 798.09 205.24 800.48 205.24ZM732.94 167.13L766.72 167.13L750.24 120.62L732.94 167.13ZM897.09 206.67L891.19 206.67C881.86 206.67 875 203.93 870.61 198.42L837.53 156.26L869.92 113.37C870.65 112.41 871.03 111.54 871.03 110.77C871.03 110 870.88 109.32 870.61 108.73C869.87 107.28 868.56 106.55 866.63 106.55L865.25 106.55L865.25 105.26L894.2 105.26L894.2 106.55L893.66 106.55C887.63 106.55 882.67 108.83 878.84 113.37L846.59 152.78L884.06 199.29C887.71 203.16 892.05 205.13 897.09 205.24L897.09 206.67ZM841.92 205.24L843.7 205.24L843.7 206.67L813.63 206.67L813.63 205.24L815.42 205.24C817.81 205.24 819.85 204.33 821.54 202.54C823.24 200.76 824.13 198.62 824.22 196.1L824.22 115.69C824.13 113.18 823.24 111.06 821.54 109.32C819.85 107.58 817.81 106.71 815.42 106.71L813.63 106.71L813.63 105.26L843.7 105.26L843.7 106.71L841.92 106.71C839.55 106.71 837.5 107.58 835.8 109.32C834.12 111.06 833.23 113.18 833.13 115.69L833.13 196.1C833.13 198.62 834.01 200.76 835.74 202.54C837.48 204.33 839.55 205.24 841.92 205.24ZM911.09 205.24C913.46 205.24 915.51 204.33 917.2 202.54C918.89 200.76 919.79 198.62 919.88 196.11L919.88 115.69C919.79 113.19 918.89 111.06 917.2 109.32C915.51 107.58 913.46 106.71 911.09 106.71L909.31 106.71L909.31 105.27L939.35 105.27L939.35 106.71L937.6 106.71C935.2 106.71 933.18 107.58 931.49 109.32C929.78 111.06 928.89 113.19 928.8 115.69L928.8 196.11C928.8 198.62 929.67 200.76 931.4 202.54C933.15 204.33 935.2 205.24 937.6 205.24L939.35 205.24L939.35 206.68L909.31 206.68L909.31 205.24L911.09 205.24ZM1059.75 106.71C1057.45 106.71 1055.5 107.55 1053.85 109.24C1052.2 110.93 1051.33 112.98 1051.23 115.4L1051.23 190.16C1051.23 195.76 1051.55 201.09 1052.2 206.11L1052.48 208.71L1051.23 208.71L976.43 124.38L976.43 196.54C976.52 199.92 977.94 202.43 980.68 204.07C981.97 204.85 983.33 205.24 984.8 205.24L987.43 205.24L987.43 206.67L959.14 206.67L959.14 205.24L961.73 205.24C964.04 205.24 966 204.39 967.66 202.69C969.3 201.01 970.1 198.91 970.1 196.39L970.1 121.2C970.1 115.3 969.79 110.03 969.17 105.4L968.87 103.08L970.26 103.08L1045.05 187.4L1045.05 115.54C1044.96 113.04 1044.09 110.93 1042.44 109.24C1040.79 107.55 1038.83 106.71 1036.55 106.71L1033.94 106.71L1033.94 105.26L1062.22 105.26L1062.22 106.71L1059.75 106.71ZM1093.16 194.07C1084.07 184.43 1079.5 171.72 1079.5 155.97C1079.5 140.22 1084.07 127.5 1093.16 117.78C1102.27 108.09 1114.14 103.24 1128.78 103.24C1141.41 103.24 1152.52 106.52 1162.14 113.1L1164.88 133.52L1163.65 133.52C1161.63 125.2 1157.58 118.81 1151.5 114.32C1145.42 109.83 1137.82 107.58 1128.78 107.58C1117.16 107.58 1107.76 112.02 1100.57 120.91C1093.38 129.8 1089.8 141.48 1089.8 155.97C1089.8 170.46 1093.38 182.11 1100.57 190.95C1107.76 199.79 1117.16 204.26 1128.78 204.35C1134.73 204.35 1140.38 203.24 1145.73 201.03C1151.1 198.81 1155.79 195.71 1159.8 191.76L1159.8 166.11C1159.8 163.98 1159.19 162.37 1157.96 161.25C1156.72 160.15 1154.99 159.6 1152.8 159.6L1150.61 159.6L1150.61 158.14L1177.5 158.14L1177.5 159.6L1175.45 159.6C1173.18 159.6 1171.43 160.15 1170.23 161.25C1169.03 162.37 1168.5 163.98 1168.59 166.11L1168.59 190.02C1166.21 193.3 1163.37 196.25 1160.09 198.86C1156.78 201.47 1152.38 203.77 1146.84 205.74C1141.29 207.72 1135.3 208.71 1128.78 208.71C1114.14 208.61 1102.27 203.73 1093.16 194.07ZM631.96 279.08C631.82 278.44 631.75 277.17 631.75 275.29C631.75 273.42 632.08 271.44 632.74 269.33L633.35 269.33C633.31 269.84 633.28 270.37 633.28 270.88C633.28 273.73 634.1 276.1 635.74 277.99C637.38 279.9 639.55 280.84 642.26 280.84C645.04 280.84 647.35 279.95 649.14 278.18C650.93 276.39 651.84 274.17 651.84 271.48C651.84 268.79 650.97 266.6 649.24 264.92L636.47 252.42C634.08 250.08 632.88 247.26 632.88 243.93C632.88 240.6 633.94 237.77 636.05 235.4C638.14 233.04 641 231.86 644.58 231.86C646.26 231.86 648.17 232.09 650.3 232.55L652.89 232.55L652.89 241.19L652.3 241.19C652.3 238.99 651.58 237.23 650.14 235.93C648.69 234.62 646.85 233.96 644.58 233.96C642.32 233.96 640.43 234.75 638.9 236.35C637.37 237.94 636.6 239.92 636.6 242.31C636.6 244.7 637.48 246.76 639.26 248.49L652.36 261.27C654.58 263.42 655.68 266.36 655.68 270.1C655.68 273.85 654.55 276.93 652.3 279.34C650.03 281.75 647.03 282.95 643.25 282.95C641.3 282.95 639.23 282.63 637.03 282C634.84 281.37 633.15 280.4 631.96 279.08Z" />
		<path id="Path 2" fill-rule="evenodd" class="shp0" d="M673.47 238.9C677.87 234.21 683.63 231.86 690.72 231.86C697.82 231.86 703.57 234.21 708.01 238.9C712.44 243.61 714.66 249.77 714.66 257.4C714.66 265.03 712.44 271.19 708.01 275.89C703.57 280.59 697.82 282.95 690.72 282.95C683.63 282.95 677.87 280.59 673.47 275.89C669.05 271.19 666.85 265.03 666.85 257.4C666.85 249.77 669.05 243.61 673.47 238.9ZM677.12 274.39C680.57 278.69 685.1 280.84 690.75 280.84C696.41 280.84 700.95 278.69 704.39 274.39C707.83 270.08 709.53 264.42 709.53 257.4C709.53 252.77 708.75 248.68 707.21 245.13C705.67 241.56 703.45 238.82 700.6 236.87C697.74 234.93 694.45 233.96 690.72 233.96C685.1 233.96 680.57 236.11 677.12 240.42C673.69 244.72 671.98 250.38 671.98 257.4C671.98 264.42 673.69 270.08 677.12 274.39ZM724.1 281.26C725.25 281.26 726.24 280.83 727.06 279.96C727.87 279.1 728.31 278.06 728.35 276.84L728.35 237.96C728.31 236.75 727.87 235.71 727.06 234.83C726.24 233.97 725.25 233.54 724.1 233.54L723.23 233.54L723.23 232.84L737.8 232.84L737.8 233.54L736.93 233.54C735.33 233.54 734.12 234.26 733.28 235.71C732.89 236.41 732.67 237.16 732.67 237.96L732.67 279.79L742.19 279.79C745.46 279.79 747.97 279.02 749.71 277.47C751.43 275.92 752.87 273.64 754.02 270.59L754.69 270.59L750.83 281.96L723.23 281.96L723.23 281.26L724.1 281.26ZM807.08 233.54L806.02 233.54C805.08 233.54 804.27 233.85 803.59 234.49C802.9 235.12 802.53 235.91 802.49 236.84L802.49 264.63C802.49 270.1 800.85 274.53 797.57 277.9C794.29 281.26 789.92 282.95 784.46 282.95C779.02 282.95 774.61 281.28 771.21 277.93C767.81 274.59 766.12 270.17 766.12 264.7L766.12 237.05C766.12 235.65 765.54 234.62 764.39 233.96C763.86 233.68 763.26 233.54 762.6 233.54L761.53 233.54L761.53 232.84L775.03 232.84L775.03 233.54L773.97 233.54C773 233.54 772.18 233.85 771.51 234.49C770.84 235.12 770.48 235.93 770.44 236.91L770.44 263.72C770.44 268.82 771.74 272.94 774.33 276.06C776.93 279.21 780.4 280.77 784.73 280.77C789.07 280.77 792.61 279.29 795.31 276.31C798.02 273.34 799.36 269.45 799.36 264.63L799.36 236.91C799.32 235.93 798.97 235.12 798.3 234.49C797.63 233.85 796.82 233.54 795.84 233.54L794.77 233.54L794.77 232.84L807.08 232.84L807.08 233.54ZM852.28 239.08C852.28 237.96 851.91 236.99 851.16 236.17C850.4 235.35 849.52 234.92 848.49 234.87L835.86 234.87L835.86 276.91C835.9 278.13 836.34 279.15 837.16 280C837.98 280.84 838.96 281.26 840.11 281.26L840.99 281.26L840.99 281.96L826.42 281.96L826.42 281.26L827.29 281.26C828.43 281.26 829.42 280.84 830.24 280C831.06 279.15 831.49 278.15 831.55 276.98L831.55 234.87L818.91 234.87C817.84 234.92 816.95 235.35 816.23 236.17C815.48 236.99 815.12 237.96 815.12 239.08L815.12 240.28L814.46 240.35L814.46 231.5C815.12 231.78 816.27 232.07 817.91 232.34C819.54 232.63 821.05 232.77 822.43 232.77L844.9 232.77C847.08 232.77 848.88 232.59 850.32 232.25C851.76 231.89 852.64 231.64 852.95 231.5L852.95 240.35L852.28 240.28L852.28 239.08ZM861.66 281.26C862.81 281.26 863.8 280.83 864.62 279.96C865.43 279.1 865.87 278.06 865.91 276.84L865.91 237.89C865.87 236.68 865.43 235.65 864.62 234.81C863.8 233.96 862.81 233.54 861.66 233.54L860.8 233.54L860.8 232.84L875.37 232.84L875.37 233.54L874.49 233.54C873.34 233.54 872.35 233.96 871.54 234.81C870.72 235.65 870.28 236.68 870.23 237.89L870.23 276.84C870.23 278.06 870.66 279.1 871.49 279.96C872.34 280.83 873.34 281.26 874.49 281.26L875.37 281.26L875.37 281.96L860.8 281.96L860.8 281.26L861.66 281.26ZM891.94 238.9C896.36 234.21 902.11 231.86 909.2 231.86C916.28 231.86 922.05 234.21 926.48 238.9C930.92 243.61 933.13 249.77 933.13 257.4C933.13 265.03 930.92 271.19 926.48 275.89C922.05 280.59 916.28 282.95 909.2 282.95C902.11 282.95 896.36 280.59 891.94 275.89C887.53 271.19 885.33 265.03 885.33 257.4C885.33 249.77 887.53 243.61 891.94 238.9ZM895.6 274.39C899.04 278.69 903.57 280.84 909.23 280.84C914.89 280.84 919.43 278.69 922.86 274.39C926.29 270.08 928.01 264.42 928.01 257.4C928.01 252.77 927.23 248.68 925.69 245.13C924.14 241.56 921.93 238.82 919.07 236.87C916.21 234.93 912.92 233.96 909.2 233.96C903.56 233.96 899.04 236.11 895.6 240.42C892.17 244.72 890.46 250.38 890.46 257.4C890.46 264.42 892.17 270.08 895.6 274.39ZM989.38 233.54C988.28 233.54 987.32 233.95 986.52 234.77C985.72 235.59 985.31 236.58 985.27 237.75L985.27 273.96C985.27 276.68 985.42 279.25 985.72 281.69L985.86 282.95L985.27 282.95L949.02 242.1L949.02 277.05C949.07 278.69 949.76 279.91 951.09 280.7C951.71 281.08 952.37 281.26 953.08 281.26L954.34 281.26L954.34 281.96L940.65 281.96L940.65 281.26L941.92 281.26C943.02 281.26 943.98 280.86 944.76 280.04C945.57 279.22 945.97 278.2 945.97 276.98L945.97 240.56C945.97 237.71 945.82 235.15 945.5 232.91L945.37 231.78L946.04 231.78L982.28 272.62L982.28 237.82C982.23 236.61 981.81 235.59 981.01 234.77C980.21 233.95 979.25 233.54 978.15 233.54L976.89 233.54L976.89 232.84L990.59 232.84L990.59 233.54L989.38 233.54ZM1000.29 279.08C1000.16 278.44 1000.08 277.17 1000.08 275.29C1000.08 273.42 1000.42 271.44 1001.08 269.33L1001.68 269.33C1001.64 269.84 1001.61 270.37 1001.61 270.88C1001.61 273.73 1002.44 276.1 1004.07 277.99C1005.71 279.9 1007.89 280.84 1010.59 280.84C1013.38 280.84 1015.67 279.95 1017.47 278.18C1019.26 276.39 1020.16 274.17 1020.16 271.48C1020.16 268.79 1019.3 266.6 1017.57 264.92L1004.8 252.42C1002.41 250.08 1001.23 247.26 1001.23 243.93C1001.23 240.6 1002.27 237.77 1004.38 235.4C1006.48 233.04 1009.32 231.86 1012.91 231.86C1014.6 231.86 1016.51 232.09 1018.64 232.55L1021.23 232.55L1021.23 241.19L1020.64 241.19C1020.64 238.99 1019.91 237.23 1018.46 235.93C1017.03 234.62 1015.18 233.96 1012.91 233.96C1010.66 233.96 1008.76 234.75 1007.23 236.35C1005.7 237.94 1004.93 239.92 1004.93 242.31C1004.93 244.7 1005.83 246.76 1007.6 248.49L1020.69 261.27C1022.91 263.42 1024.02 266.36 1024.02 270.1C1024.02 273.85 1022.89 276.93 1020.64 279.34C1018.37 281.75 1015.35 282.95 1011.59 282.95C1009.64 282.95 1007.56 282.63 1005.37 282C1003.17 281.37 1001.48 280.4 1000.29 279.08ZM226.93 184.29C218.97 183.81 192.93 180.07 186.78 179.55C186.05 179.44 174.55 179.01 173.13 180.21C172.92 180.39 172.73 180.58 172.54 180.77C172.4 180.91 172.27 181.07 172.15 181.23C172.09 181.29 172.05 181.36 172 181.42C171.28 182.35 170.67 183.47 170.22 184.83C167.46 193.11 154.95 224.8 152.19 232.62C150.14 238.39 147.86 244.33 147.28 250.35C146.97 253.54 146.89 256.76 147.29 259.88C141.46 260.5 135.19 264.26 129.56 265.84C131.47 263.32 133.68 257.61 135.29 254.64C141.52 243.16 154.99 207.7 157.06 201.97C159.31 195.74 161.09 189.27 162.33 182.76C162.63 181.21 162.58 180.07 162.22 179.27C160.78 179.38 154.24 178.84 152.46 179.03C147.93 179.51 143.39 180.03 138.95 181.02C131.72 182.63 124.45 184.26 117.43 186.6C113.01 188.07 109.04 190.89 104.83 193.04C101.92 194.52 86.12 205.35 81.45 209.69C78.33 212.59 75.56 215.94 72.91 219.32C71.28 221.41 70.11 223.89 68.88 226.28C66.59 230.71 64.12 235.08 62.24 239.7C58.74 248.31 56.63 257.31 57.1 266.7C57.43 273.56 57.32 280.51 59.54 287.15C61.82 293.94 63.93 300.62 68.43 306.54C73.17 312.78 77.79 317.63 83.93 321.93C88.25 324.95 97.94 330.87 102.25 332.28C106.12 333.56 119.51 337.67 119.51 337.67C118.5 339.16 113.77 337.99 100.04 334.41C98.07 333.9 90.8 330.72 88.79 330C83.44 327.64 75.93 323.95 71.9 319.75C68.82 316.55 66.07 312.96 63.65 309.23C61.06 305.26 58.6 301.1 56.87 296.7C54.66 291.12 52.48 285.32 51.7 279.42C50.76 272.26 50.4 274.06 50.95 266.83C51.9 254.31 59.29 231.25 66.04 220.81C69.76 215.07 82.97 200.35 86.56 197.13C94.21 190.27 103.65 186.52 112.49 181.75C115.18 180.31 118.17 179.44 121.03 178.33C129.16 175.18 137.61 173.2 146.15 171.71C148.36 171.32 165.07 171.05 166.26 171.11C167.95 169.92 169.28 168.23 170.1 166.04C172.39 159.95 198.7 90.83 201.56 83.69C202.87 80.43 202.38 77.35 201.47 74.2C200.87 72.1 200.46 69.93 199.69 67.9C198.47 64.7 199.82 62.29 202.55 61.73C209.24 60.35 211.93 54.85 215.55 50.12C216.55 48.82 218.43 47.45 219.85 47.5C220.83 47.54 222.15 49.84 222.59 51.35C225.19 60.11 283.64 261.3 287.28 271.02C288.25 273.59 292.18 281.11 303.06 282.49C302.85 283.23 302.71 284.01 302.71 284.81C302.7 285.16 302.72 285.5 302.73 285.85C288.06 276.87 270.97 274.03 255.37 267.29C255.2 264.3 254.77 261.29 254.06 258.42C251.61 248.54 236.28 195.75 235.02 191.05C234.71 189.9 234.22 188.97 233.6 188.22C232.32 186.08 230.1 184.49 226.93 184.29ZM226.05 177.63C228.8 176.43 229.26 174.08 229.13 171.31C228.83 169.37 228.67 167.39 228.2 165.49C227.06 160.84 225.83 156.21 224.54 151.6C222.95 145.89 221.19 140.23 219.66 134.51C217.78 127.49 216.06 120.43 214.28 113.39C213.95 112.08 213.65 110.77 213.33 109.47C212.32 105.33 211.52 101.11 210.15 97.1C209.67 95.71 207.9 94.45 206.44 93.88C205.89 93.68 204.2 95.45 203.62 96.62C202.24 99.42 201.13 102.36 200.05 105.29C196.58 114.65 193.28 124.08 189.73 133.4C186.57 141.66 182.91 149.74 179.91 158.05C178.55 161.8 178.01 165.91 177.49 169.9C177.21 172.1 178.45 173.38 180.97 172.94C182.75 172.62 184.62 172.4 186.42 172.59C192.56 173.25 198.68 174.23 204.83 174.87C211.11 175.51 214.89 176.37 223.46 178C224.16 178.13 225.26 177.98 226.05 177.63Z" />
		<path id="Path 3" fill-rule="evenodd" class="shp0" d="M509.01 136.97C509.11 146.52 506.58 154.17 502.17 164.78C499.44 171.36 498.72 172.07 495.75 178.09C491.86 185.97 488.28 189.54 484.66 194.25C480.82 199.22 476.09 203.21 470.4 207.18C467.89 208.93 465.25 210.53 462.77 212.35C461.21 213.49 457.88 216.02 457.49 216.28C453.61 219.01 452.67 219.04 453.49 223.29C454.63 229.19 456.38 234.98 457.92 240.8C459.71 247.54 461.57 254.26 463.39 260.99C464.56 265.29 465.62 269.62 466.91 273.87C469.39 282.01 471.72 290.2 474.5 298.23C483.85 296.58 493.23 294.58 502.68 292.24C505.48 284.97 510.82 271.17 516.71 265.64C524.88 257.96 531.76 254.03 545.54 252.36C534.85 263.72 539.83 280.02 526.17 289.98C542.39 290.3 550.87 305.99 566.8 305.4C553.78 314.87 544.01 316.62 531.62 315.34C522.63 314.41 510.09 305.36 504.14 300.34C496.44 301.83 488.78 303.11 481.17 304.18C475.66 305.49 469.31 306.91 462.14 308.13C453.15 309.64 442.94 311.13 431.69 311.87C420.46 312.59 408.21 312.93 395.28 312.08C382.36 311.28 368.74 309.62 354.87 306.86C340.99 304.12 326.87 300.35 312.77 295.97C298.67 291.58 284.56 286.68 270.54 281.97C256.5 277.33 242.49 272.92 228.53 269.93C221.54 268.41 214.59 267.2 207.69 266.45C204.26 266.08 191.43 264.33 191.1 264.33C190.79 264.32 187.19 263.71 186.9 263.63C186.09 263.39 186.9 263.63 186.9 263.63C173.44 263.33 163.11 262.45 150.95 264.5C138.69 266.56 132.91 268.78 121.34 274.87C107.75 282.04 107.38 284.71 103.24 288.63C102.2 289.61 88.04 299.98 84.74 307.97C85.57 293.99 109.78 272.1 125.04 266.4C131.5 262.62 135.66 262.42 146.15 259.59C152.54 257.85 159.21 256.66 166.05 255.76C172.88 254.85 179.9 254.42 187.01 254.19L189.68 254.03L191.09 254.01L195.05 254.01L197.82 254.06C201.54 254.17 205.16 254.35 208.85 254.68C216.2 255.42 223.61 256.57 230.94 258.14C245.62 261.2 260.07 265.7 274.24 270.52C288.43 275.29 302.36 280.44 316.16 284.97C321.07 286.6 325.96 288.16 330.82 289.63C331.55 288.03 332.25 286.3 332.92 284.42C337.04 272.73 351.7 238.75 353.69 233.34C355.86 227.45 356.8 223.55 358.03 217.39C358.85 213.24 357.16 212.13 353.06 212.64C348.75 213.18 344.38 213.37 340.08 214.02C337.33 214.45 334.51 215.11 331.98 216.25C328.87 217.64 325.66 218.96 322.6 220.5C321.36 221.25 320.12 221.94 318.87 222.54C318.01 223.06 317.16 223.6 316.34 224.19C310.06 228.75 304.18 234.28 303.11 242.79C302.61 246.84 302.39 251.18 305.53 254.6C308.28 257.61 310.15 257.25 311.07 253.23C311.9 249.56 313.44 246.86 317.15 245.6C319.26 244.88 320.73 245.15 322.28 246.91C327.3 252.6 326.27 257.55 319.39 260.5C318.01 261.09 316.84 262.31 315.43 262.77C306.92 265.53 298.95 259.1 297.36 251.22C295.97 244.3 297.45 237.64 301.37 232.01C302.85 229.9 304.54 227.97 306.37 226.17C304.63 226.38 302.96 226.49 301.45 226.43C296.93 226.26 293.07 225.44 289.9 224C286.73 222.54 284.17 220.7 282.21 218.47C280.26 216.25 278.86 213.71 278 210.86C277.15 208.01 276.78 205.07 276.9 202.02C276.95 200.54 277.15 198.85 277.48 196.94C277.83 195.04 278.44 193.03 279.33 190.91C280.21 188.8 281.42 186.58 282.97 184.25C284.52 181.93 286.49 179.6 288.88 177.27C290.8 175.38 292.68 173.87 294.52 172.73C296.37 171.59 298.06 170.72 299.58 170.11C301.09 169.51 302.45 169.13 303.65 168.98C304.84 168.83 305.75 168.77 306.37 168.79C307.59 168.84 308.62 169.05 309.45 169.44C310.28 169.82 310.94 170.26 311.42 170.75C311.9 171.24 312.31 171.74 312.63 172.26C312.96 172.78 313.23 173.24 313.44 173.64C314.71 172.67 316.16 171.47 317.78 170.05C317.86 169.99 317.93 169.91 318.02 169.84C316.21 167.65 314.5 165.37 312.98 162.99C310.56 159.21 308.25 155.24 306.64 151.05C304.59 145.75 302.99 142.93 302.3 137.33C301.46 130.53 300.75 126.13 301.33 119.28C302.31 107.43 308.71 90.14 315.18 80.3C318.75 74.89 320.68 72.22 324.93 67.36C327.9 63.95 332.03 59.94 335.46 56.93C342.76 50.48 351.73 47.01 360.15 42.56C362.7 41.21 365.54 40.41 368.25 39.39C375.98 36.46 384 34.65 392.11 33.31C394.21 32.96 396.4 33.33 398.55 33.24C401.62 33.11 404.7 32.58 407.77 32.72C412.85 32.95 417.96 33.27 422.97 34.13C429.14 35.19 435.33 36.45 441.28 38.35C445.38 39.67 449.21 42.04 452.98 44.26C459.23 47.94 465.82 51.26 471.37 55.87C478.17 61.52 484.52 67.88 489.17 75.67C492.34 80.98 495.74 86.16 498.61 91.62C505.72 105.15 508.87 121.74 509.01 136.97ZM445.69 300.67C445.7 297.05 445.29 293.35 444.45 289.83C442.2 280.45 439.74 271.11 437.11 261.83C434.97 254.26 432.34 246.84 430.14 239.28C428.85 234.86 428.03 230.3 426.86 225.84C426 222.55 426 220.5 422.65 220.33C418.64 220.13 402.71 218.12 399.25 217.79C395.82 217.45 392.16 216.45 388.74 215.85C385.14 215.22 382.29 214.52 378.69 213.94C377.36 213.72 374.72 213.15 373.43 213.22C369.46 213.42 366.88 215.36 365.49 219.42C362.82 227.24 344.19 277.19 343.61 282.89C343.22 286.66 343.08 290.1 343.74 293.34C347.86 294.46 351.95 295.51 356.02 296.47L359.6 297.31C360.78 297.57 361.95 297.8 363.13 298.06C363.83 298.3 364.54 298.46 365.26 298.52C375.75 300.73 386.05 302.41 395.97 303.44C399.38 303.79 402.74 304.08 406.05 304.34C419.19 304.32 432.29 303.65 445.41 302.3C445.59 301.79 445.69 301.25 445.69 300.67ZM501.53 117.12C499.96 109.77 497.27 102.6 494.37 95.65C491.89 89.69 488.81 83.9 485.26 78.53C483.2 75.4 481.27 71.92 478.15 69.64C477.64 68.81 476.97 68.08 476.14 67.51C469.07 58.88 458.49 52.06 449.14 48.12C440.38 44.43 430.91 42.05 421.33 40.9C421.19 40.87 421.04 40.81 420.9 40.78C420.17 40.57 419.38 40.48 418.61 40.47C418.12 40.47 417.64 40.48 417.15 40.48C411.43 40.02 405.71 40 400.09 40.4C399.4 40.3 398.71 40.23 398.04 40.3C393.75 40.72 389.43 41.17 385.22 42.08C378.35 43.54 371.46 45.03 364.78 47.19C360.59 48.55 346.93 55.43 344.48 57.24C339.63 60.8 334.98 64.71 330.53 68.78C327.56 71.51 324.91 74.66 322.38 77.85C320.82 79.81 319.69 82.15 318.51 84.41C316.3 88.59 313.93 92.71 312.12 97.07C308.74 105.21 306.69 113.72 307.06 122.63C307.33 129.13 307.18 135.71 309.24 142.02C311.35 148.48 313.31 154.82 317.54 160.48C319 162.44 320.6 164.22 322.27 165.93C322.36 165.84 322.46 165.75 322.55 165.66C324.11 164.16 325.57 162.69 326.93 161.26C328.28 159.82 329.41 158.58 330.29 157.52C331.17 156.46 332.13 154.97 333.17 153.05C334.19 151.14 334.75 149.4 334.8 147.84C334.83 146.98 334.72 146.27 334.48 145.71C334.23 145.16 333.92 144.68 333.55 144.27C333.11 143.78 332.8 143.38 332.62 143.06C332.44 142.74 332.36 142.27 332.39 141.64C332.44 140.08 332.98 138.91 334.01 138.13C335.04 137.35 336.09 136.98 337.16 137.02C338.47 137.07 339.66 137.58 340.74 138.56C341.81 139.54 342.31 141.16 342.23 143.43C342.12 146.48 340.91 149.87 338.62 153.62C336.33 157.36 332.4 161.78 326.83 166.89C324.36 169.21 321.35 171.77 317.79 174.57C314.23 177.36 310.51 180.18 306.64 183C302.77 185.81 298.93 188.54 295.1 191.17C291.28 193.8 287.83 196.11 284.76 198.1L284.72 199.04C284.59 202.79 285.12 205.95 286.33 208.54C287.54 211.14 289.11 213.27 291.05 214.95C292.98 216.63 295.13 217.84 297.48 218.59C299.83 219.35 302.12 219.77 304.34 219.86C306.72 219.95 309.23 219.64 311.87 218.92C314.51 218.2 317.08 217.09 319.6 215.58C322.12 214.07 324.52 212.17 326.85 209.88C329.16 207.58 331.22 204.91 333.02 201.85C334.17 199.85 335.16 197.96 336 196.16C336.83 194.35 337.52 192.53 338.04 190.72C338.57 188.9 339.01 187 339.35 185.02C339.69 183.04 339.94 180.84 340.12 178.43C339.52 177.78 338.68 177.26 337.58 176.86C336.48 176.46 335.36 176.25 334.2 176.2C333.29 176.17 332.34 176.32 331.36 176.68C330.39 177.03 329.47 177.54 328.6 178.21C327.73 178.88 327.01 179.66 326.44 180.53C325.87 181.41 325.56 182.36 325.53 183.37C325.51 183.92 325.59 184.55 325.81 185.26C326.01 185.97 326.17 186.64 326.3 187.28C326.43 187.91 326.58 188.52 326.75 189.11C326.92 189.7 327 190.19 326.98 190.58C326.97 190.98 326.72 191.61 326.23 192.49C325.73 193.37 324.68 193.78 323.07 193.72C321.84 193.67 320.72 193.24 319.72 192.42C318.71 191.6 318.23 190.4 318.3 188.85C318.35 187.28 319 185.33 320.24 183C321.48 180.65 323.6 178.33 326.61 176.02C327.8 175.13 328.99 174.4 330.2 173.82C331.42 173.24 332.55 172.79 333.6 172.48C334.64 172.17 335.57 171.95 336.38 171.83C337.2 171.71 337.79 171.65 338.18 171.66C339.79 171.73 341.22 172.02 342.47 172.53C343.72 173.05 344.9 173.74 346.02 174.6C347.14 175.47 348.27 176.49 349.41 177.67C350.56 178.85 351.81 180.09 353.14 181.39C353.81 182.04 354.33 182.57 354.69 182.98C355.06 183.38 355.42 183.71 355.75 183.96C356.09 184.2 356.43 184.37 356.77 184.46C357.11 184.55 357.56 184.61 358.09 184.63C358.71 184.66 359.25 184.33 359.74 183.64C360.23 182.96 360.49 182.11 360.53 181.09C360.55 180.46 360.53 179.92 360.47 179.44C360.41 178.97 360.31 178.54 360.18 178.14C360.04 177.75 359.93 177.39 359.87 177.07C359.81 176.76 359.77 176.52 359.78 176.37C359.81 175.66 360.18 175.02 360.89 174.42C361.6 173.82 362.5 173.54 363.57 173.58C365.11 173.64 366.17 174.39 366.77 175.82C367.37 177.25 367.64 178.75 367.59 180.3C367.54 181.63 367.25 182.76 366.72 183.67C366.17 184.6 365.68 185.27 365.19 185.73C364.79 186.1 364.34 186.34 363.84 186.44C363.34 186.54 362.77 186.65 362.16 186.78C361.15 186.9 359.72 187.22 357.86 187.73C356 188.24 354.51 188.79 353.42 189.38C352.79 189.75 352.25 189.82 351.8 189.61C351.35 189.4 350.97 189.05 350.68 188.57C350.54 188.33 350.23 187.89 349.75 187.24C349.28 186.6 348.69 185.87 347.99 185.06C347.29 184.25 346.52 183.38 345.67 182.45C344.82 181.52 343.95 180.68 343.06 179.94C343.04 180.49 342.98 181.21 342.92 182.11C342.84 183 342.77 183.94 342.7 184.92C342.62 185.89 342.54 186.83 342.47 187.72C342.4 188.62 342.32 189.34 342.22 189.88C342.12 190.75 341.81 192.06 341.33 193.84C340.84 195.62 340.11 197.65 339.14 199.91C338.18 202.19 336.91 204.6 335.36 207.16C334.56 208.47 333.65 209.78 332.65 211.07C333.98 210.74 335.32 210.43 336.67 210.16C343.03 208.92 349.58 208.66 356.07 208.29C360.33 208.05 363.9 205.79 365.51 201.6C367.71 195.85 369.94 190.1 372.18 184.36C377.41 170.96 393.12 130.55 395.88 123.8C397.14 120.72 396.7 117.81 395.87 114.8C395.3 112.81 394.93 110.75 394.22 108.82C393.08 105.78 394.38 103.51 396.96 103C403.32 101.74 405.9 96.55 409.37 92.1C410.32 90.87 412.11 89.59 413.46 89.65C414.39 89.69 415.62 91.89 416.04 93.32C418.44 101.65 445.2 199.9 447.56 207.53C448.65 211.06 450.66 212.03 454.04 210.75C461.78 207.82 468.67 203.43 474.46 197.44C478.53 193.23 482.42 188.83 486.19 184.33C487.87 182.33 489.32 180.01 490.41 177.63C492.86 172.29 496.56 166.88 498.3 160.99C500.09 154.98 500.31 153.25 501.23 149.04C502.14 144.86 502.68 137.83 502.68 133.56C502.68 127.17 502.85 123.29 501.53 117.12ZM285.15 193.66C289.41 190.93 293.19 188.4 296.5 186.06C299.82 183.73 302.46 181.74 304.45 180.09C304.54 179.55 304.6 178.99 304.63 178.4L304.66 177.29C304.71 176.19 304.37 175.3 303.67 174.61C302.96 173.92 302.08 173.56 301 173.51C300.16 173.48 298.89 173.92 297.21 174.83C295.52 175.74 293.76 177.3 291.91 179.49C290.06 181.85 288.58 184.18 287.5 186.48C286.41 188.78 285.63 191.17 285.15 193.66ZM421.41 207.08C421.14 205.23 421.01 203.36 420.58 201.56C419.53 197.14 418.39 192.74 417.2 188.35C415.73 182.94 414.1 177.56 412.69 172.12C410.95 165.46 409.37 158.75 407.73 152.06C407.43 150.82 407.15 149.58 406.86 148.33C405.92 144.4 405.21 140.4 403.94 136.59C403.49 135.26 401.82 134.05 400.44 133.51C399.92 133.3 398.3 134.97 397.74 136.08C396.41 138.72 395.34 141.49 394.3 144.27C390.96 153.11 387.77 162.02 384.33 170.82C381.27 178.63 377.76 186.26 374.85 194.11C373.53 197.65 373.14 200.54 372.62 204.32C372.33 206.4 373.26 206.74 375.14 207.25C376.8 207.7 379.22 207.75 380.92 207.94C386.74 208.62 392.53 209.6 398.35 210.25C404.3 210.91 407.8 212.17 415.99 213.37C416.67 213.47 417.7 213.36 418.46 213.04C421.07 211.92 421.52 209.7 421.41 207.08ZM595.94 280.09C586.91 290.41 579.3 293.77 568.98 295.3C558.66 296.82 542.96 288.77 542.96 288.77C565.19 268.79 574.17 286.02 595.94 280.09ZM540.32 283.7C540.32 283.7 541.98 266.26 547.34 258.28C552.68 250.3 557.75 245.59 569.05 241.3C557.81 260.07 569.81 276.01 540.32 283.7ZM567.64 270.81C567.64 270.81 567.39 265.95 571.63 257.73C579.04 243.38 587.58 243.08 601.24 239.08C605.64 237.79 616.48 233.06 616.48 233.06C616.48 233.06 610.87 241.33 607.87 247.65C601.59 260.93 597.58 270.08 581.21 272.14C571.83 273.31 567.64 270.81 567.64 270.81Z" />
	</g>
</svg>